<?xml version="1.0" encoding="UTF-8" standalone="no"?>
<svg
   height="1024"
   width="1024"
   version="1.1"
   id="svg8"
   sodipodi:docname="logo.svg"
   inkscape:version="1.4 (e7c3feb1, 2024-10-09)"
   inkscape:export-filename="logo.png"
   inkscape:export-xdpi="96"
   inkscape:export-ydpi="96"
   xmlns:inkscape="http://www.inkscape.org/namespaces/inkscape"
   xmlns:sodipodi="http://sodipodi.sourceforge.net/DTD/sodipodi-0.dtd"
   xmlns="http://www.w3.org/2000/svg"
   xmlns:svg="http://www.w3.org/2000/svg">
  <defs
     id="defs8" />
  <sodipodi:namedview
     id="namedview8"
     pagecolor="#505050"
     bordercolor="#ffffff"
     borderopacity="1"
     inkscape:showpageshadow="0"
     inkscape:pageopacity="0"
     inkscape:pagecheckerboard="1"
     inkscape:deskcolor="#505050"
     inkscape:zoom="0.35461545"
     inkscape:cx="346.8546"
     inkscape:cy="542.84155"
     inkscape:window-width="1680"
     inkscape:window-height="912"
     inkscape:window-x="0"
     inkscape:window-y="25"
     inkscape:window-maximized="0"
     inkscape:current-layer="svg8" />
  <path
     d="m0 0s-.325 1.994-.515 1.976l-36.182-3.491c-2.879-.278-5.115-2.574-5.317-5.459l-.994-14.247L-71-23.218l-1.904 12.912c-.424 2.872-2.932 5.037-5.835 5.037h-38.188c-2.902.0-5.41-2.165-5.834-5.037l-1.905-12.912-27.992 1.997-.994 14.247c-.202 2.886-2.438 5.182-5.317 5.46l-36.2 3.49c-.187.018-.324-1.978-.511-1.978l-.049-7.83 30.658-4.944 1.004-14.374c.203-2.91 2.551-5.263 5.463-5.472l38.551-2.75c.146-.01.29-.016.434-.016 2.897.0 5.401 2.166 5.825 5.038l1.959 13.286h28.005l1.959-13.286c.423-2.871 2.93-5.037 5.831-5.037.142.0.284.005.423.015l38.556 2.75c2.911.209 5.26 2.562 5.463 5.472l1.003 14.374 30.645 4.966z"
     fill="#fff"
     id="path1"
     transform="matrix(4.162611 0 0 -4.162611 919.24059 673.152141)" />
  <path
     d="m0 0v-47.514-6.035-5.492c.108-.001.216-.005.323-.015l36.196-3.49c1.896-.183 3.382-1.709 3.514-3.609l1.116-15.978 31.574-2.253 2.175 14.747c.282 1.912 1.922 3.329 3.856 3.329h38.188c1.933.0 3.573-1.417 3.855-3.329l2.175-14.747 31.575 2.253 1.115 15.978c.133 1.9 1.618 3.425 3.514 3.609l36.182 3.49c.107.01.214.014.322.015v4.711l.015.005v54.325c5.09692 6.4164715 9.92323 13.494208 13.621 19.449-5.651 9.62-12.575 18.217-19.976 26.182-6.864-3.455-13.531-7.369-19.828-11.534-3.151 3.132-6.7 5.694-10.186 8.372-3.425 2.751-7.285 4.768-10.946 7.118 1.09 8.117 1.629 16.108 1.846 24.448-9.446 4.754-19.519 7.906-29.708 10.17-4.068-6.837-7.788-14.241-11.028-21.479-3.842.642-7.702.88-11.567.926v.006c-.027.0-.052-.006-.075-.006-.024.0-.049.006-.073.006v-.006c-3.872-.046-7.729-.284-11.572-.926-3.238 7.238-6.956 14.642-11.03 21.479-10.184-2.264-20.258-5.416-29.703-10.17.216-8.34.755-16.331 1.848-24.448-3.668-2.35-7.523-4.367-10.949-7.118-3.481-2.678-7.036-5.24-10.188-8.372-6.297 4.165-12.962 8.079-19.828 11.534-7.401-7.965-14.321-16.562-19.974-26.182 4.4426579-6.973692 9.2079702-13.9828876 13.621-19.449z"
     fill="#478cbf"
     transform="matrix(4.162611 0 0 -4.162611 104.69892 427.387251)"
     id="path2" />
  <path
     d="m0 0-1.121-16.063c-.135-1.936-1.675-3.477-3.611-3.616l-38.555-2.751c-.094-.007-.188-.01-.281-.01-1.916.0-3.569 1.406-3.852 3.33l-2.211 14.994H-81.09l-2.211-14.994c-.297-2.018-2.101-3.469-4.133-3.32l-38.555 2.751c-1.936.139-3.476 1.68-3.611 3.616L-130.721.0l-32.547 3.138c.015-3.498.06-7.33.06-8.093.0-34.374 43.605-50.896 97.781-51.086h.066.067c54.176.19 97.766 16.712 97.766 51.086.0.777.047 4.593.063 8.093z"
     fill="#478cbf"
     id="path3"
     transform="matrix(4.162611 0 0 -4.162611 784.07144 718.723121)" />
  <path
     d="m0 0c0-12.052-9.765-21.815-21.813-21.815-12.042.0-21.81 9.763-21.81 21.815.0 12.044 9.768 21.802 21.81 21.802C-9.765 21.802.0 12.044.0.0"
     fill="#fff"
     transform="matrix(4.162611 0 0 -4.162611 389.21484 527.151321)"
     id="path4" />
  <path
     d="m0 0c0-7.994-6.479-14.473-14.479-14.473-7.996.0-14.479 6.479-14.479 14.473s6.483 14.479 14.479 14.479C-6.479 14.479.0 7.994.0.0"
     fill="#414042"
     transform="matrix(4.162611 0 0 -4.162611 367.36686 532.537071)"
     id="path5"
     style="fill:#504416" />
  <path
     d="m0 0c-3.878.0-7.021 2.858-7.021 6.381v20.081c0 3.52 3.143 6.381 7.021 6.381s7.028-2.861 7.028-6.381V6.381c0-3.523-3.15-6.381-7.028-6.381"
     fill="#fff"
     transform="matrix(4.162611 0 0 -4.162611 511.99336 626.219821)"
     id="path6" />
  <path
     d="m0 0c0-12.052 9.765-21.815 21.815-21.815 12.041.0 21.808 9.763 21.808 21.815.0 12.044-9.767 21.802-21.808 21.802-12.05.0-21.815-9.758-21.815-21.802"
     fill="#fff"
     transform="matrix(4.162611 0 0 -4.162611 634.78706 527.151321)"
     id="path7" />
  <path
     d="m0 0c0-7.994 6.477-14.473 14.471-14.473C22.473-14.473 28.95-7.994 28.95.0s-6.477 14.479-14.479 14.479C6.477 14.479.0 7.994.0.0"
     fill="#414042"
     transform="matrix(4.162611 0 0 -4.162611 656.64056 532.537071)"
     id="path8"
     inkscape:label="path8" />
  <path
     id="path9"
     style="opacity:1;fill:#504416;stroke-width:8.00001;stroke-linecap:round"
     inkscape:label="path9"
     d="M 298.42188 365.04688 C 228.24408 365.0469 168.65505 409.71798 146.08789 472.10938 L 107.8125 472.10938 C 96.7325 472.10937 87.8125 481.02938 87.8125 492.10938 L 87.8125 564.66406 C 87.8125 575.74406 96.7325 584.66406 107.8125 584.66406 L 146.97266 584.66406 C 170.19376 645.78846 229.15247 689.30857 298.42188 689.30859 C 401.54084 689.01528 408.8614 608.45909 512 608.22266 C 615.36677 608.26086 622.42894 688.89337 725.58008 689.30859 C 794.84948 689.30857 853.80819 645.78846 877.0293 584.66406 L 916.27539 584.66406 C 927.35539 584.66406 936.27539 575.74406 936.27539 564.66406 L 936.27539 492.10938 C 936.27539 481.02938 927.35539 472.10937 916.27539 472.10938 L 877.91406 472.10938 C 855.34691 409.71798 795.75787 365.0469 725.58008 365.04688 C 622.46266 365.34098 615.13806 445.89924 512 446.13477 C 408.86002 445.89463 401.54816 365.33424 298.42188 365.04688 z M 298.41602 426.39844 C 354.09096 426.39844 399.21484 471.49123 399.21484 527.14844 C 399.21484 582.84263 354.09096 627.95898 298.41602 627.95898 C 242.7688 627.95898 197.62891 582.84263 197.62891 527.14844 C 197.62891 471.49123 242.7688 426.39844 298.41602 426.39844 z M 725.5957 426.39844 C 781.2383 426.39844 826.37305 471.49123 826.37305 527.14844 C 826.37305 582.84263 781.2383 627.95898 725.5957 627.95898 C 669.91152 627.95898 624.78711 582.84263 624.78711 527.14844 C 624.78711 471.49123 669.91152 426.39844 725.5957 426.39844 z " />
  <path
     id="path14"
     style="opacity:0.5;fill:#504416;stroke-width:8;stroke-linecap:round"
     d="m 402.20728,529.21521 a 105,105 0 0 1 -105,105 105,105 0 0 1 -105,-105 105,105 0 0 1 105,-105 105,105 0 0 1 105,105 z" />
  <path
     id="circle14"
     style="opacity:0.5;fill:#504416;stroke-width:8;stroke-linecap:round"
     d="m 827.27295,529.21521 a 105,105 0 0 1 -105,105 105,105 0 0 1 -105,-105 105,105 0 0 1 105,-105 105,105 0 0 1 105,105 z" />
  <path
     id="path15"
     style="opacity:0.75;fill:#ffffff;stroke-width:8;stroke-linecap:round"
     transform="rotate(-30)"
     d="m -13.82621,539.9444 a 15,7.5 0 0 1 -15,7.5 15,7.5 0 0 1 -15,-7.5 15,7.5 0 0 1 15,-7.5 15,7.5 0 0 1 15,7.5 z" />
  <path
     id="ellipse15"
     style="opacity:0.75;fill:#ffffff;stroke-width:8;stroke-linecap:round"
     transform="rotate(-30)"
     d="m 352.04044,751.17761 a 15,7.5 0 0 1 -15,7.5 15,7.5 0 0 1 -15,-7.5 15,7.5 0 0 1 15,-7.5 15,7.5 0 0 1 15,7.5 z" />
</svg>
