<?xml version="1.0" encoding="UTF-8"?>
<svg viewBox="0 0 1024 1024" xmlns="http://www.w3.org/2000/svg">
<path d="M919.24 673.152s-1.352-8.3-2.143-8.225l-150.612 14.531a24.48 24.48 0 0 0-22.132 22.724l-4.138 59.305-116.52 8.313-7.925-53.748c-1.765-11.955-12.205-20.967-24.29-20.967H432.52c-12.08 0-22.52 9.012-24.285 20.967l-7.93 53.748-116.52-8.313-4.137-59.305a24.48 24.48 0 0 0-22.133-22.728l-150.686-14.527c-.778-.075-1.349 8.233-2.127 8.233l-.204 32.594 127.617 20.58 4.18 59.833c.845 12.113 10.618 21.908 22.74 22.778l160.473 11.447a26 26 0 0 0 1.806.067c12.06 0 22.482-9.017 24.247-20.972l8.155-55.304h116.574l8.154 55.304c1.761 11.951 12.197 20.967 24.273 20.967.59 0 1.182-.02 1.76-.062l160.494-11.447c12.117-.87 21.895-10.665 22.74-22.778l4.176-59.833 127.563-20.672z" fill="#fff"/>
<path d="M104.699 427.387v245.765c.45.004.899.02 1.344.062l150.67 14.528a16.22 16.22 0 0 1 14.628 15.023l4.645 66.51 131.43 9.378 9.054-61.386a16.22 16.22 0 0 1 16.051-13.857h158.962c8.046 0 14.873 5.898 16.047 13.857l9.054 61.386 131.434-9.378 4.641-66.51a16.23 16.23 0 0 1 14.628-15.023l150.611-14.528c.446-.041.891-.058 1.34-.062v-19.61l.063-.02V427.386c21.217-26.709 41.307-56.17 56.699-80.958-23.523-40.045-52.345-75.83-83.152-108.986-28.572 14.382-56.325 30.674-82.537 48.012-13.116-13.038-27.89-23.702-42.4-34.85-14.257-11.451-30.325-19.847-45.564-29.63 4.537-33.787 6.781-67.05 7.684-101.767-39.32-19.789-81.25-32.91-123.663-42.333-16.933 28.46-32.418 59.28-45.905 89.408-15.993-2.672-32.06-3.663-48.149-3.854v-.025c-.112 0-.216.025-.312.025-.1 0-.204-.025-.304-.025v.025c-16.117.191-32.173 1.182-48.17 3.854-13.478-30.129-28.955-60.949-45.913-89.408-42.392 9.424-84.326 22.544-123.642 42.333.899 34.717 3.143 67.98 7.692 101.768-15.268 9.782-31.315 18.178-45.576 29.63-14.49 11.147-29.288 21.811-42.409 34.849-26.212-17.338-53.956-33.63-82.536-48.012C100.337 270.598 71.531 306.384 48 346.43c18.493 29.028 38.33 58.205 56.699 80.958" fill="#478cbf"/>
<path d="m784.071 718.723-4.666 66.864c-.562 8.059-6.972 14.474-15.031 15.052l-160.49 11.451q-.587.043-1.17.042c-7.975 0-14.856-5.853-16.034-13.861l-9.203-62.415H446.525l-9.203 62.415c-1.237 8.4-8.746 14.44-17.204 13.82l-160.49-11.452c-8.059-.578-14.469-6.993-15.03-15.052l-4.667-66.864-135.48-13.062c.062 14.56.249 30.512.249 33.688 0 143.085 181.51 211.86 407.024 212.651h.554c225.514-.79 406.962-69.566 406.962-212.651 0-3.234.195-19.119.262-33.688z" fill="#478cbf"/>
<path d="m389.22 527.15c0 50.168-40.648 90.808-90.8 90.808-50.125 0-90.786-40.64-90.786-90.808 0-50.134 40.66-90.753 90.787-90.753 50.15 0 90.799 40.619 90.799 90.753" fill="#fff"/>
<path transform="matrix(4.1626 0 0 -4.1626 367.37 532.54)" d="M0 0c0-7.994-6.479-14.473-14.479-14.473-7.996 0-14.479 6.479-14.479 14.473s6.483 14.479 14.479 14.479C-6.479 14.479 0 7.994 0 0" fill="#504416"/>
<path d="m511.99 626.22c-16.142 0-29.225-11.897-29.225-26.562v-83.59c0-14.652 13.083-26.56 29.225-26.56s29.255 11.908 29.255 26.56v83.59c0 14.665-13.112 26.562-29.255 26.562m122.79-99.069c0 50.168 40.648 90.808 90.807 90.808 50.122 0 90.779-40.64 90.779-90.808 0-50.134-40.657-90.753-90.779-90.753-50.159 0-90.807 40.619-90.807 90.753" fill="#fff"/>
<path d="m656.64 532.54c0 33.276 26.962 60.246 60.238 60.246 33.309 0 60.27-26.97 60.27-60.246s-26.961-60.27-60.27-60.27c-33.276 0-60.237 26.994-60.237 60.27" fill="#414042"/>
<path d="m298.42 365.05c-70.178 0-129.77 44.671-152.33 107.06h-38.275c-11.08 0-20 8.92-20 20v72.555c0 11.08 8.92 20 20 20h39.16c23.22 61.124 82.18 104.64 151.45 104.64 103.12-0.294 110.44-80.85 213.58-81.086 103.37 0.038 110.43 80.67 213.58 81.086 69.27 0 128.23-43.52 151.45-104.64h39.245c11.08 0 20-8.92 20-20v-72.554c0-11.08-8.92-20-20-20h-38.36c-22.568-62.391-82.157-107.06-152.34-107.06-103.12 0.294-110.44 80.852-213.58 81.088-103.14-0.24-110.45-80.8-213.58-81.088m-6e-3 61.351c55.675 0 100.8 45.093 100.8 100.75 0 55.695-45.124 100.81-100.8 100.81-55.647 0-100.79-45.116-100.79-100.81 0-55.658 45.14-100.75 100.79-100.75m427.18 0c55.642 0 100.78 45.093 100.78 100.75 0 55.695-45.135 100.81-100.78 100.81-55.684 0-100.81-45.116-100.81-100.81 0-55.658 45.125-100.75 100.81-100.75" fill="#504416" stroke-linecap="round" stroke-width="8"/>
<path d="m402.21 529.22a105 105 0 0 1-105 105 105 105 0 0 1-105-105 105 105 0 0 1 105-105 105 105 0 0 1 105 105m425.07 0a105 105 0 0 1-105 105 105 105 0 0 1-105-105 105 105 0 0 1 105-105 105 105 0 0 1 105 105" fill="#504416" opacity=".5" stroke-linecap="round" stroke-width="8"/>
<path transform="rotate(-30)" d="m-13.826 539.94a15 7.5 0 0 1-15 7.5 15 7.5 0 0 1-15-7.5 15 7.5 0 0 1 15-7.5 15 7.5 0 0 1 15 7.5m365.87 211.23a15 7.5 0 0 1-15 7.5 15 7.5 0 0 1-15-7.5 15 7.5 0 0 1 15-7.5 15 7.5 0 0 1 15 7.5" fill="#fff" opacity=".75" stroke-linecap="round" stroke-width="8"/>
<path transform="matrix(4.1626 0 0 -4.1626 511.99 626.22)" d="M0 32.843c-3.878 0-7.021-2.86-7.021-6.38V6.38c0-.91.213-1.773.59-2.557 1.966.316 4.097.494 6.433.5 2.34-.001 4.473-.175 6.44-.488.375.78.586 1.64.586 2.545v20.081c0 3.52-3.15 6.38-7.028 6.38" opacity=".2"/>
</svg>
